<svg xmlns="http://www.w3.org/2000/svg" viewBox="430 242 354 366" width="32" height="32">
  <rect x="435.207" y="252.012" width="333.562" height="345.812" rx="45" ry="45" fill="#9440dd"/>
  <g transform="translate(492.309447,459.916248)">
    <path fill="#ffcc33" fill-opacity="1" d="M 133.46875 -127.578125 C 134.175781 -124.015625 134.53125 -120.210938 134.53125 -116.171875 L 134.171875 -101.5625 C 133.929688 -90.28125 133.691406 -78.847656 133.453125 -67.265625 C 133.222656 -55.679688 132.867188 -44.128906 132.390625 -32.609375 C 132.035156 -20.253906 128.414062 -12.175781 121.53125 -8.375 C 114.875 -4.6875 106.316406 -5.816406 95.859375 -11.765625 C 90.515625 -14.847656 85.613281 -18.554688 81.15625 -22.890625 C 76.707031 -27.234375 73.054688 -31.125 70.203125 -34.5625 C 66.640625 -38.601562 63.253906 -42.847656 60.046875 -47.296875 C 56.835938 -51.753906 53.691406 -56.179688 50.609375 -60.578125 C 49.296875 -62.359375 48.015625 -64.140625 46.765625 -65.921875 C 45.523438 -67.710938 44.25 -69.5 42.9375 -71.28125 L 42.234375 -72.515625 C 41.515625 -73.472656 40.738281 -74.457031 39.90625 -75.46875 C 39.082031 -76.476562 38.015625 -77.457031 36.703125 -78.40625 L 33.671875 -80.71875 L 33.671875 -75.015625 C 33.671875 -74.304688 33.671875 -73.625 33.671875 -72.96875 C 33.671875 -72.3125 33.671875 -71.628906 33.671875 -70.921875 L 33.140625 -59.34375 C 32.898438 -51.96875 32.660156 -44.507812 32.421875 -36.96875 C 32.191406 -29.425781 31.898438 -21.972656 31.546875 -14.609375 C 31.421875 -11.878906 30.644531 -9.148438 29.21875 -6.421875 C 27.4375 -2.734375 24.941406 -0.832031 21.734375 -0.71875 C 18.648438 -0.476562 16.097656 -2.082031 14.078125 -5.53125 C 12.171875 -8.375 11.101562 -11.164062 10.875 -13.90625 C 8.613281 -32.550781 7.242188 -49.710938 6.765625 -65.390625 C 6.296875 -81.078125 6.710938 -96.101562 8.015625 -110.46875 C 8.140625 -112.96875 8.796875 -115.582031 9.984375 -118.3125 C 11.878906 -123.1875 15.023438 -126.394531 19.421875 -127.9375 C 21.085938 -128.414062 22.691406 -128.65625 24.234375 -128.65625 C 27.085938 -128.65625 29.820312 -127.878906 32.4375 -126.328125 C 36.226562 -124.191406 39.429688 -121.460938 42.046875 -118.140625 C 45.015625 -114.335938 47.984375 -110.472656 50.953125 -106.546875 C 53.929688 -102.628906 56.84375 -98.769531 59.6875 -94.96875 C 61.351562 -92.832031 62.988281 -90.695312 64.59375 -88.5625 C 66.195312 -86.425781 67.832031 -84.285156 69.5 -82.140625 C 72.34375 -78.335938 75.191406 -74.59375 78.046875 -70.90625 C 80.898438 -67.226562 83.75 -63.488281 86.59375 -59.6875 L 95.328125 -48.46875 L 99.96875 -50.25 L 100.140625 -53.453125 C 100.253906 -54.171875 100.3125 -54.882812 100.3125 -55.59375 C 100.3125 -56.300781 100.375 -57.015625 100.5 -57.734375 C 100.5 -60.460938 100.554688 -63.191406 100.671875 -65.921875 C 100.796875 -68.660156 100.859375 -71.394531 100.859375 -74.125 C 101.085938 -80.894531 101.320312 -87.722656 101.5625 -94.609375 C 101.800781 -101.503906 102.039062 -108.394531 102.28125 -115.28125 C 102.632812 -120.507812 103.765625 -125.617188 105.671875 -130.609375 C 106.972656 -133.816406 109.019531 -136.25 111.8125 -137.90625 C 114.601562 -139.570312 117.660156 -140.226562 120.984375 -139.875 C 124.078125 -139.519531 126.78125 -138.210938 129.09375 -135.953125 C 131.414062 -133.703125 132.875 -130.910156 133.46875 -127.578125 Z M 133.46875 -127.578125 "/>
  </g>
  <rect x="435.207" y="252.012" width="333.562" height="345.812" rx="45" ry="45" fill="none" stroke="#9440dd" stroke-width="22"/>
</svg>