<?xml version="1.0" encoding="UTF-8" standalone="no"?>
<!DOCTYPE svg PUBLIC "-//W3C//DTD SVG 1.1//EN" "http://www.w3.org/Graphics/SVG/1.1/DTD/svg11.dtd">
<svg width="100%" height="100%" viewBox="0 0 500 500" version="1.1" xmlns="http://www.w3.org/2000/svg" xmlns:xlink="http://www.w3.org/1999/xlink" xml:space="preserve" xmlns:serif="http://www.serif.com/" style="fill-rule:evenodd;clip-rule:evenodd;stroke-linejoin:round;stroke-miterlimit:2;">
    <g transform="matrix(1,0,0,1,-51.08415,35.055655)">
        <path d="M517.835,247.529C502.077,353.057 410.971,434.105 301.084,434.105C193.782,434.105 104.387,356.824 85.57,254.933C145.214,272.297 249.659,266.369 249.659,266.369C162.628,265.369 110.716,239.223 81.929,216.496C81.925,215.979 81.923,215.462 81.923,214.944C81.923,93.986 180.126,-4.216 301.084,-4.216C399.426,-4.216 482.726,60.696 510.439,149.975C444.269,156.562 363.747,196.93 363.747,196.93C296.213,224.285 261.734,239.103 261.734,239.103C266.293,237.393 372.295,201.204 372.295,201.204C442.098,177.229 488.259,172.162 516.163,172.665C517.042,177.158 517.784,181.7 518.385,186.287C444.713,180.704 365.171,214.944 365.171,214.944C276.552,255.755 164.281,247.936 164.281,247.936C217.852,270.163 294.336,252.616 294.336,252.616C418.466,228.812 484.112,236.329 517.835,247.529Z" style="fill:url(#_Linear1);"/>
    </g>
    <g transform="matrix(0.718997,0,0,1,83.450122,0)">
        <path d="M105.518,328.465L105.966,160.73L139.804,160.73L262.689,281.389L262.62,160.73L297.319,160.73L296.972,328.584L262.689,328.584L140.027,205.922L140.027,328.584L105.518,328.465Z" style="fill:rgb(255,222,89);"/>
    </g>
    <path d="M466.75,282.584C433.028,271.385 367.382,263.868 243.252,287.672C243.252,287.672 166.768,305.218 113.197,282.992C113.197,282.992 225.467,290.81 314.087,250C314.087,250 393.629,215.76 467.3,221.343C468.528,230.722 469.161,240.288 469.161,250C469.161,261.071 468.338,271.952 466.75,282.584Z" style="fill:rgb(78,23,82);"/>
    <path d="M34.486,289.989C32.182,277.513 30.936,264.669 30.845,251.552C59.632,274.279 111.544,300.424 198.575,301.425C198.575,301.425 94.13,307.353 34.486,289.989Z" style="fill:rgb(148,64,221);"/>
    <path d="M465.079,207.72C437.175,207.218 391.014,212.284 321.211,236.26C321.211,236.26 215.209,272.449 210.65,274.159C210.65,274.159 245.129,259.341 312.663,231.986C312.663,231.986 393.184,191.617 459.354,185.031C461.652,192.434 463.568,200.005 465.079,207.72Z" style="fill:rgb(148,64,221);"/>
    <g transform="matrix(1,0,0,1,-5.936478,0)">
        <rect x="305.965" y="212.428" width="29.682" height="116.156" style="fill:rgb(255,222,89);"/>
    </g>
    <g transform="matrix(1,0,0,1,-5.936478,0)">
        <rect x="305.965" y="160.73" width="29.682" height="27.952" style="fill:rgb(255,222,89);"/>
    </g>
    <g transform="matrix(1,0,0,1,48.233894,139.902394)">
        <rect x="305.965" y="160.73" width="29.682" height="27.952" style="fill:rgb(255,222,89);"/>
    </g>
    <defs>
        <linearGradient id="_Linear1" x1="0" y1="0" x2="1" y2="0" gradientUnits="userSpaceOnUse" gradientTransform="matrix(438.32146,0,0,438.32146,81.923419,214.944345)"><stop offset="0" style="stop-color:rgb(73,23,96);stop-opacity:1"/><stop offset="1" style="stop-color:rgb(3,1,4);stop-opacity:1"/></linearGradient>
    </defs>
</svg>
