<?xml version="1.0" encoding="UTF-8" standalone="no"?>
<!DOCTYPE svg PUBLIC "-//W3C//DTD SVG 1.1//EN" "http://www.w3.org/Graphics/SVG/1.1/DTD/svg11.dtd">
<svg width="100%" height="100%" viewBox="0 0 500 500" version="1.1" xmlns="http://www.w3.org/2000/svg" xmlns:xlink="http://www.w3.org/1999/xlink" xml:space="preserve" xmlns:serif="http://www.serif.com/" style="fill-rule:evenodd;clip-rule:evenodd;stroke-linejoin:round;stroke-miterlimit:2;">
    <g transform="matrix(-0.166453,0.000214,-0.000161,-0.12516,500,500)">
        <rect x="0" y="0" width="3000" height="4000"/>
    </g>
    <g transform="matrix(0.673078,0,0,0.983123,-20.621669,12.999292)">
        <path d="M105.518,328.465L105.966,160.73L139.804,160.73L262.689,281.389L262.62,160.73L297.319,160.73L296.972,328.584L262.689,328.584L140.027,205.922L140.027,328.584L105.518,328.465Z" style="fill:rgb(255,222,89);"/>
    </g>
    <g transform="matrix(1.073684,0,0,1.127576,5.126604,-18.681735)">
        <path d="M500,302.401C500,302.401 464.659,245.214 243.252,287.672C243.252,287.672 166.768,305.218 113.197,282.992C113.197,282.992 225.467,290.81 314.087,250C314.087,250 419.484,204.63 500,226.857L500,302.401Z" style="fill:rgb(78,23,82);"/>
    </g>
    <g transform="matrix(1.129738,0,0,1.127576,-0,-57.18159)">
        <path d="M0,218.166C0,218.166 43.633,299.644 198.575,301.425C198.575,301.425 33.838,310.775 0,271.594L0,218.166Z" style="fill:rgb(148,64,221);"/>
    </g>
    <g transform="matrix(1.073684,0,0,1.127576,5.126604,-18.681735)">
        <path d="M500,186.394L500,212.894C500,212.894 452.289,191.238 321.211,236.26C321.211,236.26 215.209,272.449 210.65,274.159C210.65,274.159 245.129,259.341 312.663,231.986C312.663,231.986 432.591,171.861 500,186.394Z" style="fill:rgb(148,64,221);"/>
    </g>
    <g transform="matrix(0.936135,0,0,0.983123,135.388337,150.540497)">
        <rect x="305.965" y="160.73" width="29.682" height="27.952" style="fill:rgb(255,222,89);"/>
    </g>
    <g transform="matrix(0.40132,0,0,0.421464,111.317228,199.249274)">
        <g transform="matrix(1,0,0,1.42,0,-138.005343)">
            <g transform="matrix(234.331912,0,0,234.331912,179.430098,328.58415)">
                <path d="M0.408,0.014C0.336,0.014 0.272,0.004 0.216,-0.017C0.16,-0.037 0.116,-0.066 0.084,-0.105C0.051,-0.144 0.035,-0.19 0.035,-0.245C0.035,-0.302 0.051,-0.35 0.084,-0.389C0.116,-0.428 0.16,-0.457 0.216,-0.476C0.272,-0.495 0.336,-0.505 0.408,-0.505C0.488,-0.505 0.557,-0.494 0.616,-0.473C0.674,-0.451 0.719,-0.421 0.751,-0.382C0.782,-0.343 0.798,-0.297 0.798,-0.245C0.798,-0.206 0.789,-0.171 0.771,-0.14C0.753,-0.108 0.727,-0.081 0.693,-0.058C0.659,-0.035 0.618,-0.017 0.57,-0.005C0.522,0.008 0.468,0.014 0.408,0.014ZM0.498,-0.138C0.549,-0.138 0.595,-0.141 0.638,-0.147C0.68,-0.154 0.714,-0.165 0.74,-0.18C0.765,-0.195 0.778,-0.217 0.778,-0.245C0.778,-0.274 0.765,-0.296 0.74,-0.311C0.714,-0.326 0.68,-0.337 0.638,-0.343C0.595,-0.349 0.549,-0.352 0.498,-0.352C0.43,-0.352 0.377,-0.343 0.34,-0.326C0.303,-0.308 0.284,-0.281 0.284,-0.245C0.284,-0.222 0.292,-0.202 0.309,-0.186C0.326,-0.17 0.35,-0.158 0.382,-0.15C0.414,-0.142 0.453,-0.138 0.498,-0.138ZM0.778,-0.49L1.018,-0.49L1.018,-0L0.792,-0C0.792,-0 0.791,-0.008 0.788,-0.023C0.786,-0.038 0.784,-0.06 0.781,-0.089C0.779,-0.118 0.778,-0.151 0.778,-0.19L0.778,-0.49Z" style="fill:rgb(255,222,89);fill-rule:nonzero;"/>
            </g>
            <g transform="matrix(234.331912,0,0,234.331912,416.808325,328.58415)">
                <path d="M0.721,-0.176L0.957,-0.176C0.951,-0.137 0.932,-0.104 0.899,-0.075C0.867,-0.046 0.82,-0.024 0.759,-0.009C0.697,0.007 0.618,0.015 0.523,0.015C0.422,0.015 0.335,0.007 0.263,-0.009C0.19,-0.025 0.133,-0.052 0.094,-0.09C0.055,-0.128 0.035,-0.179 0.035,-0.244C0.035,-0.308 0.054,-0.359 0.092,-0.398C0.131,-0.436 0.186,-0.463 0.259,-0.48C0.332,-0.497 0.42,-0.505 0.523,-0.505C0.624,-0.505 0.707,-0.496 0.772,-0.478C0.837,-0.46 0.884,-0.431 0.915,-0.391C0.946,-0.35 0.96,-0.296 0.959,-0.227L0.279,-0.227C0.282,-0.21 0.292,-0.194 0.307,-0.179C0.323,-0.164 0.347,-0.152 0.381,-0.144C0.413,-0.135 0.458,-0.13 0.513,-0.13C0.57,-0.13 0.618,-0.134 0.654,-0.142C0.692,-0.15 0.714,-0.161 0.721,-0.176ZM0.513,-0.36C0.442,-0.36 0.389,-0.352 0.352,-0.337C0.315,-0.322 0.293,-0.306 0.286,-0.291L0.726,-0.291C0.721,-0.308 0.703,-0.324 0.67,-0.339C0.637,-0.353 0.585,-0.36 0.513,-0.36ZM0.488,-0.753L0.488,-0.602L0.234,-0.602L0.234,-0.753L0.488,-0.753ZM0.792,-0.753L0.792,-0.602L0.538,-0.602L0.538,-0.753L0.792,-0.753Z" style="fill:rgb(255,222,89);fill-rule:nonzero;"/>
            </g>
            <g transform="matrix(234.331912,0,0,234.331912,638.01765,328.58415)">
                <rect x="0.06" y="-0.69" width="0.24" height="0.69" style="fill:rgb(255,222,89);fill-rule:nonzero;"/>
            </g>
            <g transform="matrix(234.331912,0,0,234.331912,722.377139,328.58415)">
            </g>
        </g>
    </g>
</svg>
